<svg width="320" height="320" viewBox="0 0 320 320" fill="none" xmlns="http://www.w3.org/2000/svg">
<rect width="320" height="320" rx="50" fill="#000B32"/>
<rect x="108" y="24" width="12" height="270" rx="6" fill="url(#paint0_linear)"/>
<rect x="200" y="24" width="12" height="270" rx="6" fill="url(#paint1_linear)"/>
<rect x="25" y="119" width="12" height="270" rx="5.99999" transform="rotate(-90 25 119)" fill="url(#paint2_linear)"/>
<rect x="25" y="211" width="12" height="270" rx="5.99999" transform="rotate(-90 25 211)" fill="url(#paint3_linear)"/>
<circle cx="68" cy="251" r="29" fill="#00B533"/>
<circle cx="68" cy="251" r="22" fill="#000B32"/>
<rect x="133" y="136.95" width="7" height="72" rx="3.5" transform="rotate(-45 133 136.95)" fill="#CF0000"/>
<rect x="183.912" y="132" width="7" height="72" rx="3.5" transform="rotate(45 183.912 132)" fill="#CF0000"/>
<rect x="224" y="43.9498" width="7" height="72" rx="3.5" transform="rotate(-45 224 43.9498)" fill="#CF0000"/>
<rect x="274.912" y="39" width="7" height="72" rx="3.5" transform="rotate(45 274.912 39)" fill="#CF0000"/>
<circle cx="68" cy="67" r="29" fill="#00B533"/>
<circle cx="68" cy="67" r="22" fill="#000B32"/>
<defs>
<linearGradient id="paint0_linear" x1="114" y1="24" x2="114" y2="294" gradientUnits="userSpaceOnUse">
<stop stop-color="#4B74FF"/>
<stop offset="1" stop-color="#4B74FF"/>
</linearGradient>
<linearGradient id="paint1_linear" x1="206" y1="24" x2="206" y2="294" gradientUnits="userSpaceOnUse">
<stop stop-color="#4B74FF"/>
<stop offset="1" stop-color="#4B74FF"/>
</linearGradient>
<linearGradient id="paint2_linear" x1="31" y1="119" x2="31" y2="389" gradientUnits="userSpaceOnUse">
<stop stop-color="#4B74FF"/>
<stop offset="1" stop-color="#4B74FF"/>
</linearGradient>
<linearGradient id="paint3_linear" x1="31" y1="211" x2="31" y2="481" gradientUnits="userSpaceOnUse">
<stop stop-color="#4B74FF"/>
<stop offset="1" stop-color="#4B74FF"/>
</linearGradient>
</defs>
</svg>
